HIERARCHY
ROOT Hips
{
	OFFSET 0.000000 0.000000 0.000000
	CHANNELS 6 Xposition Yposition Zposition Yrotation Xrotation Zrotation
	JOINT Chest
	{
		OFFSET 0.000000 -0.009281 11.569106
		CHANNELS 3 Yrotation Xrotation Zrotation
		JOINT Chest2
		{
			OFFSET -0.000000 0.016865 9.269641
			CHANNELS 3 Yrotation Xrotation Zrotation
			JOINT Chest3
			{
				OFFSET -0.000000 0.000001 8.374491
				CHANNELS 3 Yrotation Xrotation Zrotation
				JOINT Chest4
				{
					OFFSET -0.000000 0.000001 8.374493
					CHANNELS 3 Yrotation Xrotation Zrotation
					JOINT Neck
					{
						OFFSET -0.000000 0.000002 12.152554
						CHANNELS 3 Yrotation Xrotation Zrotation
						JOINT Head
						{
							OFFSET -0.000000 0.040101 7.802319
							CHANNELS 3 Yrotation Xrotation Zrotation
							End Site
							{
								OFFSET -0.000000 0.020947 14.853096
							}
						}
					}
					JOINT RightCollar
					{
						OFFSET 2.894404 0.000001 6.791374
						CHANNELS 3 Yrotation Xrotation Zrotation
						JOINT RightShoulder
						{
							OFFSET 13.574684 0.000001 0.000000
							CHANNELS 3 Yrotation Xrotation Zrotation
							JOINT RightElbow
							{
								OFFSET 23.923903 0.000002 0.000000
								CHANNELS 3 Yrotation Xrotation Zrotation
								JOINT RightWrist
								{
									OFFSET 19.846718 0.012767 0.000000
									CHANNELS 3 Yrotation Xrotation Zrotation
									End Site
									{
										OFFSET 14.973145 0.000001 0.000000
									}
								}
							}
						}
					}
					JOINT LeftCollar
					{
						OFFSET -2.894404 0.000001 6.791374
						CHANNELS 3 Yrotation Xrotation Zrotation
						JOINT LeftShoulder
						{
							OFFSET -13.574684 -0.000001 0.000000
							CHANNELS 3 Yrotation Xrotation Zrotation
							JOINT LeftElbow
							{
								OFFSET -23.923903 -0.000002 0.000000
								CHANNELS 3 Yrotation Xrotation Zrotation
								JOINT LeftWrist
								{
									OFFSET -19.846718 0.012763 0.000000
									CHANNELS 3 Yrotation Xrotation Zrotation
									End Site
									{
										OFFSET -14.973145 -0.000001 0.000000
									}
								}
							}
						}
					}
				}
			}
		}
	}
	JOINT RightHip
	{
		OFFSET 9.469263 0.004643 0.045487
		CHANNELS 3 Yrotation Xrotation Zrotation
		JOINT RightKnee
		{
			OFFSET 0.000000 0.002661 -40.478676
			CHANNELS 3 Yrotation Xrotation Zrotation
			JOINT RightAnkle
			{
				OFFSET 0.000000 0.049106 -35.224068
				CHANNELS 3 Yrotation Xrotation Zrotation
				JOINT RightToe
				{
					OFFSET -0.000001 12.539529 -6.151390
					CHANNELS 3 Yrotation Xrotation Zrotation
					End Site
					{
						OFFSET -0.000001 5.044994 -1.291870
					}
				}
			}
		}
	}
	JOINT LeftHip
	{
		OFFSET -9.469263 0.004641 0.045487
		CHANNELS 3 Yrotation Xrotation Zrotation
		JOINT LeftKnee
		{
			OFFSET 0.000000 0.002661 -40.478676
			CHANNELS 3 Yrotation Xrotation Zrotation
			JOINT LeftAnkle
			{
				OFFSET 0.000000 0.049106 -35.224068
				CHANNELS 3 Yrotation Xrotation Zrotation
				JOINT LeftToe
				{
					OFFSET -0.000001 12.539529 -6.151390
					CHANNELS 3 Yrotation Xrotation Zrotation
					End Site
					{
						OFFSET -0.000001 5.044994 -1.291870
					}
				}
			}
		}
	}
}
MOTION
Frames: 6
Frame Time: 0.016667
-9.998516 29.582691 82.023102 -4.241544 1.853314 -104.613896 -4.023078 -2.751785 -0.072597 -1.132634 -1.423086 -0.215551 -1.132634 -1.423086 -0.215549 -0.849934 -1.066919 -0.164293 3.991467 -20.626526 -5.396712 5.647476 -2.049772 -8.620774 8.324457 -0.486385 -2.850924 46.961276 -20.384215 -1.372320 24.784349 -34.921579 37.009274 -27.896835 39.915151 66.215706 -7.030084 2.878016 -3.173007 -40.779644 -7.715513 9.207316 -40.229029 -55.522884 -18.598738 15.241361 15.906119 -57.259088 -2.536031 -15.523526 -20.390321 8.480926 -25.254841 -3.224700 4.014746 -25.566324 18.426445 -39.065427 53.579491 -19.364324 -11.949226 1.348378 -0.826153 -4.315970 -1.481498 11.672112 8.018312 -5.014108 11.227521 -0.420530 -0.490765 -0.061526 
-9.341020 29.397186 81.979118 -4.139472 1.877747 -104.519571 -4.022580 -2.651426 0.109742 -1.104757 -1.396877 -0.206729 -1.104758 -1.396876 -0.206728 -0.829000 -1.047288 -0.157564 4.087806 -20.400930 -5.599848 5.752330 -1.628029 -8.958807 8.308209 -0.400200 -2.850608 46.834027 -20.346362 -1.508840 24.866928 -34.969746 37.078700 -27.923837 39.872906 66.170552 -7.009062 2.939909 -3.218598 -40.923297 -7.740863 9.145615 -40.296579 -55.450556 -18.445042 15.234554 15.765526 -57.086919 -2.777855 -15.566028 -20.259811 8.557990 -25.546164 -3.232143 4.813708 -27.387990 18.137403 -41.874913 55.069503 -21.483450 -11.954267 0.923334 -0.894714 -4.285495 -1.525140 11.481073 7.957953 -4.390419 11.321092 -0.381112 -0.679692 -0.033990 
-8.641001 29.258863 81.924660 -4.132352 1.958640 -104.246356 -4.099010 -2.645800 0.138883 -1.079594 -1.367264 -0.209417 -1.079594 -1.367264 -0.209417 -0.810127 -1.025081 -0.159472 4.181950 -20.181858 -5.797839 5.854218 -1.218534 -9.288464 8.299460 -0.329537 -2.853619 46.711353 -20.303890 -1.620871 24.950684 -34.999692 37.117949 -27.942118 39.836477 66.124789 -7.000473 2.971403 -3.288464 -41.074432 -7.752678 9.112628 -40.340176 -55.380844 -18.279087 15.210155 15.697788 -57.003318 -3.017290 -15.656131 -20.224183 8.518739 -25.843163 -3.088082 5.897232 -29.216240 17.898441 -45.275610 56.268905 -24.008159 -12.057850 0.386827 -1.109427 -4.261107 -1.587377 11.304736 7.896631 -3.751753 11.222423 -0.317186 -0.827762 0.055518 
-7.945494 29.132277 81.865189 -4.075597 2.078117 -103.920461 -4.194180 -2.600465 0.152673 -1.065446 -1.327430 -0.224750 -1.065446 -1.327430 -0.224750 -0.799536 -0.995185 -0.170871 4.287033 -19.983429 -5.993914 5.976798 -0.846896 -9.611705 8.328366 -0.231833 -2.878431 46.635712 -20.293988 -1.741358 24.959210 -34.995256 37.116231 -27.936457 39.823175 66.116402 -7.021311 3.005704 -3.398395 -41.194725 -7.806963 9.140325 -40.330751 -55.311753 -18.125869 15.114435 15.749965 -57.054059 -3.303937 -15.656312 -20.139537 8.459235 -26.173135 -2.876973 7.221341 -31.104630 17.541118 -49.114736 57.345654 -26.824212 -12.186912 -0.130475 -1.417834 -4.253472 -1.561316 11.177451 7.812472 -3.144525 11.182516 -0.208706 -0.960107 0.178913 
-7.252796 28.958099 81.827347 -3.980276 1.968855 -103.498328 -4.029045 -2.559646 0.090340 -1.062897 -1.280722 -0.252449 -1.062897 -1.280721 -0.252449 -0.797669 -0.960107 -0.191557 4.391973 -19.825589 -6.179096 6.103759 -0.550481 -9.915629 8.381322 -0.123447 -2.884929 46.647668 -20.272751 -1.896060 24.789362 -34.981439 37.079010 -27.862015 39.849373 66.180688 -7.085492 3.050737 -3.512696 -41.286468 -7.876998 9.232006 -40.347922 -55.256265 -17.932918 15.010116 15.885420 -57.196055 -3.352872 -15.578852 -20.083294 8.477416 -26.614428 -2.572664 8.677792 -33.052248 17.212963 -53.656545 58.127738 -30.218669 -12.070558 -0.699981 -1.736586 -4.221999 -1.503252 11.112444 7.738976 -2.480323 11.126989 -0.132850 -1.159128 0.152077 
-6.501191 28.765713 81.840950 -3.960297 1.742650 -102.864117 -3.730077 -2.598125 -0.171078 -1.064897 -1.230714 -0.286842 -1.064897 -1.230714 -0.286843 -0.799220 -0.922539 -0.217272 4.485244 -19.705381 -6.356332 6.213265 -0.324303 -10.209079 8.406740 -0.029640 -2.903890 46.742499 -20.212372 -2.065875 24.430912 -35.028437 37.060262 -27.755864 39.904021 66.289158 -7.177934 3.105478 -3.578661 -41.351263 -7.955617 9.322384 -40.469305 -55.229350 -17.665678 14.930527 16.037583 -57.336959 -3.253141 -15.405891 -20.163065 8.570297 -27.379355 -2.414164 10.163145 -34.888879 17.165027 -58.113258 57.953001 -33.501385 -11.844540 -1.420691 -2.066389 -4.178717 -1.423279 11.014525 7.583457 -1.937488 11.006431 -0.029413 -1.228945 0.126748 
